<mxfile host="Electron" modified="2024-02-02T17:41:32.466Z" agent="Mozilla/5.0 (Windows NT 10.0; Win64; x64) AppleWebKit/537.36 (KHTML, like Gecko) draw.io/22.0.3 Chrome/114.0.5735.289 Electron/25.8.4 Safari/537.36" etag="8UkVE_VlDxWnFE7DhWw6" version="22.0.3" type="device">
  <diagram name="Page-1" id="RmnsakT69907WoWBBdSa">
    <mxGraphModel dx="1159" dy="937" grid="1" gridSize="10" guides="1" tooltips="1" connect="1" arrows="1" fold="1" page="1" pageScale="1" pageWidth="1169" pageHeight="827" math="0" shadow="0">
      <root>
        <mxCell id="0" />
        <mxCell id="1" parent="0" />
        <mxCell id="lx-TI8_tcc0B4IM36Nra-6" style="edgeStyle=orthogonalEdgeStyle;rounded=0;orthogonalLoop=1;jettySize=auto;html=1;entryX=0;entryY=0.5;entryDx=0;entryDy=0;" edge="1" parent="1" source="lx-TI8_tcc0B4IM36Nra-1" target="lx-TI8_tcc0B4IM36Nra-4">
          <mxGeometry relative="1" as="geometry" />
        </mxCell>
        <mxCell id="lx-TI8_tcc0B4IM36Nra-7" style="edgeStyle=orthogonalEdgeStyle;rounded=0;orthogonalLoop=1;jettySize=auto;html=1;entryX=0;entryY=0.5;entryDx=0;entryDy=0;" edge="1" parent="1" source="lx-TI8_tcc0B4IM36Nra-1" target="lx-TI8_tcc0B4IM36Nra-2">
          <mxGeometry relative="1" as="geometry" />
        </mxCell>
        <mxCell id="lx-TI8_tcc0B4IM36Nra-8" style="edgeStyle=orthogonalEdgeStyle;rounded=0;orthogonalLoop=1;jettySize=auto;html=1;entryX=0;entryY=0.5;entryDx=0;entryDy=0;" edge="1" parent="1" source="lx-TI8_tcc0B4IM36Nra-1" target="lx-TI8_tcc0B4IM36Nra-5">
          <mxGeometry relative="1" as="geometry" />
        </mxCell>
        <mxCell id="lx-TI8_tcc0B4IM36Nra-1" value="STX.Serialization.Providers.Abstractions" style="rounded=1;whiteSpace=wrap;html=1;fillColor=#6d8764;fontColor=#ffffff;strokeColor=#3A5431;" vertex="1" parent="1">
          <mxGeometry x="200" y="384" width="280" height="60" as="geometry" />
        </mxCell>
        <mxCell id="lx-TI8_tcc0B4IM36Nra-2" value="STX.Serialization.Providers.NewtonSoft" style="rounded=1;whiteSpace=wrap;html=1;" vertex="1" parent="1">
          <mxGeometry x="570" y="290" width="280" height="60" as="geometry" />
        </mxCell>
        <mxCell id="lx-TI8_tcc0B4IM36Nra-4" value="STX.Serialization.Providers.SystemText" style="rounded=1;whiteSpace=wrap;html=1;" vertex="1" parent="1">
          <mxGeometry x="570" y="384" width="280" height="60" as="geometry" />
        </mxCell>
        <mxCell id="lx-TI8_tcc0B4IM36Nra-5" value="STX.Serialization.Providers.x" style="rounded=1;whiteSpace=wrap;html=1;" vertex="1" parent="1">
          <mxGeometry x="570" y="480" width="280" height="60" as="geometry" />
        </mxCell>
      </root>
    </mxGraphModel>
  </diagram>
</mxfile>
